<?xml version="1.0" encoding="UTF-8"?>
<svg id="Layer_2" data-name="Layer 2" xmlns="http://www.w3.org/2000/svg" viewBox="0 0 275.65 94.81">
  <defs>
    <style>
      .cls-1 {
        fill: #fff;
      }
    </style>
  </defs>
  <g id="Layer_1-2" data-name="Layer 1">
    <g>
      <path class="cls-1" d="M22.21,36.59V12.95h8.48v23.43c0,5.53,2.13,8.64,7.18,8.64s7.08-3.05,7.08-8.64V12.95h8.33v23.59c0,9.41-4.79,15.31-15.51,15.31s-15.56-5.9-15.56-15.26"/>
      <path class="cls-1" d="M5.3,47.86s-2.82-15.96,5.97-28.98C18.66,7.92,25.07,3.5,37.3.16,37.3.16,11.78-2.41,2.73,13.08c-7.1,14.39,2.57,34.79,2.57,34.79"/>
      <path class="cls-1" d="M15.88,12.53l3.22-10.78s-10.63,2.64-15.05,8.96C-1.47,18.62.24,28.42.29,29.12l8.68-6.42,6.92-10.17Z"/>
      <path class="cls-1" d="M18.75,17.92c.01-3.47-2.79-6.29-6.25-6.31-3.47-.01-6.29,2.79-6.31,6.25-.01,3.47,2.79,6.29,6.25,6.3,3.47.01,6.29-2.79,6.31-6.25"/>
      <path class="cls-1" d="M104.31,44.52v9.81h-11.06v-9.81h-3.92v23.99h3.92v-10.81h11.06v10.81h3.94v-23.99h-3.94ZM141.01,44.52v23.99h14.08v-3.36h-10.16v-20.62h-3.92ZM163.15,47.8h3.4c5.37,0,8.06,2.87,8.06,8.61s-2.89,8.79-8.66,8.79h-2.79v-17.41ZM159.23,44.52v23.99h6.71c4.14,0,7.3-1.05,9.5-3.14,2.2-2.1,3.3-5.12,3.3-9.08,0-3.73-1.06-6.62-3.18-8.68-2.12-2.06-5.09-3.08-8.91-3.08h-7.42ZM183.88,68.5h3.92v-23.99h-3.92v23.99ZM210.53,44.52v12.57c0,.89.03,2.12.1,3.7.07,1.58.11,2.5.13,2.75h-.1l-11.76-19.02h-4.76v23.99h3.56v-12.47c0-1.68-.08-3.54-.23-5.58l-.08-1.07h.13l11.8,19.11h4.81v-23.99h-3.59ZM222.6,47.44c-2.22,2.18-3.33,5.2-3.33,9.07s.98,6.95,2.95,9.1c1.97,2.15,4.77,3.22,8.4,3.22,1.54,0,2.98-.1,4.31-.3,1.33-.2,2.71-.53,4.16-1v-12.04h-8.83v3.36h4.97v6.19c-1.44.32-2.8.48-4.07.48-2.52,0-4.44-.76-5.78-2.29-1.34-1.53-2.01-3.75-2.01-6.69s.74-4.99,2.23-6.6c1.49-1.61,3.51-2.41,6.07-2.41,1.95,0,3.89.45,5.84,1.35l1.38-3.26c-2.24-.96-4.62-1.44-7.12-1.44-3.89,0-6.95,1.09-9.17,3.27M245.74,45.9c-1.42,1.15-2.13,2.72-2.13,4.72,0,1.6.45,2.96,1.35,4.1.9,1.14,2.44,2.15,4.63,3.04,2.12.85,3.52,1.59,4.2,2.21.68.62,1.02,1.38,1.02,2.28,0,1-.37,1.79-1.11,2.38-.74.59-1.88.89-3.44.89-1.06,0-2.21-.15-3.44-.44-1.23-.3-2.39-.7-3.49-1.21v3.71c1.73.84,3.95,1.26,6.66,1.26s4.84-.61,6.38-1.82c1.54-1.21,2.31-2.89,2.31-5.02,0-1.08-.19-2.02-.57-2.82-.38-.8-.98-1.52-1.8-2.15-.82-.63-2.11-1.32-3.87-2.05-1.57-.65-2.65-1.17-3.25-1.56-.6-.39-1.03-.81-1.3-1.25-.26-.44-.39-.98-.39-1.6,0-.91.33-1.64.98-2.19.66-.55,1.62-.83,2.89-.83,1.67,0,3.58.45,5.71,1.35l1.25-3.2c-2.28-1-4.56-1.51-6.86-1.51s-4.3.57-5.73,1.72M119.34,63.2c-1.19-1.53-1.79-3.77-1.79-6.72s.6-5.17,1.8-6.69c1.2-1.52,2.97-2.28,5.32-2.28s4.08.76,5.26,2.28c1.18,1.52,1.77,3.75,1.77,6.69s-.59,5.23-1.78,6.74c-1.19,1.51-2.95,2.26-5.27,2.26s-4.11-.76-5.3-2.29M116.31,47.32c-1.95,2.12-2.93,5.16-2.93,9.12s.97,7.01,2.91,9.16c1.94,2.15,4.72,3.22,8.34,3.22s6.34-1.08,8.29-3.25c1.95-2.17,2.93-5.2,2.93-9.11s-.97-6.95-2.92-9.11c-1.95-2.15-4.7-3.23-8.27-3.23s-6.41,1.06-8.36,3.18"/>
      <path class="cls-1" d="M109.89,1.9v23.82c0,6.11-2.67,9.16-8,9.16-2.75,0-4.78-.74-6.11-2.22-1.33-1.48-1.99-3.78-1.99-6.89V1.9h-5.68v24.31c0,4.33,1.19,7.74,3.57,10.22,2.38,2.48,5.72,3.72,10.02,3.72,2.89,0,5.37-.56,7.45-1.69,2.08-1.13,3.66-2.73,4.76-4.82,1.1-2.09,1.65-4.53,1.65-7.32V1.9h-5.66ZM148.05,1.9v19.77c0,1.39.05,3.33.14,5.82.1,2.49.16,3.93.19,4.32h-.14L131.27,1.9h-6.86v37.73h5.14v-19.61c0-2.65-.11-5.57-.33-8.77l-.12-1.68h.19l17.02,30.06h6.94V1.9h-5.18ZM162.38,39.63h5.66V1.9h-5.66v37.73ZM173.29,1.9v5.29h10.18v32.44h5.66V7.19h10.18V1.9h-26.02ZM204.61,1.9v37.73h19.58v-5.24h-13.92v-11.84h13.04v-5.16h-13.04V7.11h13.92V1.9h-19.58ZM237.33,7.06h4.9c7.75,0,11.62,4.52,11.62,13.55s-4.17,13.83-12.5,13.83h-4.03V7.06ZM231.67,1.9v37.73h9.68c5.96,0,10.53-1.65,13.71-4.94,3.17-3.29,4.76-8.06,4.76-14.28,0-5.87-1.53-10.42-4.59-13.65-3.06-3.23-7.35-4.85-12.86-4.85h-10.7Z"/>
      <path class="cls-1" d="M130.12,91.16l2.29-10.85h1.76l-1.97,9.33h4l-.32,1.52h-5.76ZM139.24,91.16h-1.75l1.75-8.21h1.74l-1.74,8.21ZM139.59,80.93c0-.34.1-.61.29-.82.19-.21.47-.31.82-.31.26,0,.48.07.64.2.16.13.25.33.25.6,0,.35-.1.63-.3.83-.2.2-.46.3-.78.3-.26,0-.48-.06-.65-.19-.17-.13-.26-.33-.26-.61M143.03,91.16l-.97-8.21h1.72l.41,4.44c.07.79.1,1.52.1,2.2h.05c.14-.37.31-.77.52-1.23s.37-.78.48-.98l2.31-4.44h1.86l-4.44,8.21h-2.04ZM152.51,91.31c-.97,0-1.73-.27-2.28-.82-.55-.55-.82-1.32-.82-2.3s.19-1.89.58-2.73c.38-.84.9-1.5,1.56-1.96.66-.46,1.39-.69,2.2-.69s1.42.18,1.86.54c.44.36.66.87.66,1.53,0,.9-.41,1.6-1.23,2.11-.82.51-2,.76-3.52.76h-.32l-.02.23v.22c0,.55.14.98.42,1.29.28.31.7.47,1.25.47.36,0,.71-.05,1.06-.14.35-.09.77-.26,1.25-.48v1.39c-.47.22-.91.37-1.31.46-.4.09-.84.14-1.33.14M153.63,84.14c-.47,0-.92.21-1.34.64-.42.43-.72.99-.9,1.68h.22c.93,0,1.66-.13,2.18-.4.53-.26.79-.64.79-1.12,0-.25-.08-.45-.24-.59-.16-.14-.39-.21-.7-.21M170.4,91.16h-1.91l-.28-6.25-.04-1.37.03-.79h-.04c-.23.71-.52,1.43-.87,2.16l-2.86,6.25h-1.9l-.39-10.85h1.7l.14,6.31c0,.67-.03,1.53-.1,2.57h.05c.41-1.09.76-1.97,1.05-2.64l2.87-6.24h1.67l.23,6.22.02,1.26-.02,1.4h.06c.14-.44.31-.92.52-1.47.21-.54.36-.92.45-1.13l2.66-6.28h1.83l-4.86,10.85ZM175.99,91.16h-1.75l1.75-8.21h1.74l-1.74,8.21ZM176.34,80.93c0-.34.1-.61.29-.82.19-.21.47-.31.82-.31.26,0,.47.07.64.2.16.13.25.33.25.6,0,.35-.1.63-.3.83-.2.2-.46.3-.78.3-.26,0-.48-.06-.65-.19-.17-.13-.26-.33-.26-.61M181.45,89.9c.34,0,.71-.08,1.12-.23v1.32c-.17.08-.41.16-.71.22s-.59.1-.89.1c-1.35,0-2.03-.61-2.03-1.83,0-.28.04-.61.12-.97l.9-4.23h-1.2l.15-.82,1.41-.61.96-1.72h1.08l-.39,1.83h2.07l-.29,1.32h-2.05l-.91,4.25c-.07.27-.1.5-.1.68,0,.21.06.38.19.51.12.13.31.19.56.19M188.86,91.16l1.05-4.99c.09-.45.13-.76.13-.94,0-.67-.32-1-.96-1-.55,0-1.07.31-1.55.93-.48.62-.84,1.47-1.06,2.54l-.73,3.46h-1.75l2.45-11.55h1.74l-.42,1.94c-.13.62-.31,1.35-.54,2.18l-.14.56h.06c.42-.52.83-.9,1.25-1.14.42-.23.86-.35,1.32-.35.67,0,1.19.19,1.55.58.36.38.54.93.54,1.64,0,.38-.06.81-.17,1.29l-1.03,4.85h-1.74ZM205.27,83.29c0,1.23-.42,2.17-1.26,2.83-.84.66-2.01.99-3.5.99h-.82l-.85,4.06h-1.76l2.29-10.85h2.48c1.13,0,1.98.25,2.56.74.57.5.86,1.24.86,2.23M200.01,85.61h.7c.88,0,1.56-.2,2.04-.59s.72-.95.72-1.67c0-.54-.14-.93-.43-1.18-.29-.25-.73-.37-1.33-.37h-.88l-.82,3.81ZM209.02,82.95l-.96,4.53c-.15.7-.23,1.17-.23,1.43,0,.66.31.99.94.99.36,0,.71-.14,1.06-.42.35-.28.66-.68.93-1.21.27-.52.48-1.13.63-1.84l.73-3.48h1.73l-1.73,8.21h-1.37l.15-1.52h-.06c-.41.57-.83,1-1.27,1.26-.44.27-.91.4-1.42.4-.66,0-1.17-.19-1.54-.56s-.54-.92-.54-1.62c0-.31.03-.62.09-.92.06-.3.12-.61.18-.92l.91-4.33h1.75ZM220.15,82.8c.31,0,.57.03.8.09l-.38,1.62c-.27-.07-.52-.1-.76-.1-.62,0-1.18.28-1.67.84-.49.56-.83,1.29-1.02,2.2l-.79,3.71h-1.75l1.75-8.21h1.36l-.16,1.52h.07c.41-.59.82-1.02,1.23-1.28.41-.26.85-.39,1.31-.39M224.72,91.31c-.9,0-1.56-.43-1.99-1.31h-.07c-.04.48-.1.94-.19,1.37l-.71,3.43h-1.73l2.51-11.86h1.36l-.16,1.39h.07c.78-1.03,1.63-1.54,2.55-1.54.71,0,1.26.26,1.66.76.4.51.6,1.22.6,2.12,0,1.01-.17,1.95-.52,2.83-.35.88-.82,1.56-1.41,2.05-.6.49-1.25.73-1.97.73M226.86,85.72c0-.99-.38-1.49-1.15-1.49-.4,0-.8.2-1.19.59-.4.39-.72.92-.97,1.56-.25.65-.38,1.32-.38,2.01,0,.47.11.84.34,1.11.23.27.55.4.98.4s.81-.19,1.18-.58c.37-.39.65-.91.87-1.56.21-.65.32-1.33.32-2.04M237.34,86.03c0,1-.18,1.91-.54,2.73-.36.82-.86,1.45-1.49,1.88-.63.44-1.36.66-2.18.66-.95,0-1.7-.28-2.26-.85-.56-.57-.84-1.34-.84-2.31s.18-1.89.53-2.71c.35-.82.85-1.46,1.49-1.92.64-.46,1.38-.69,2.21-.69.96,0,1.72.29,2.26.86.54.57.82,1.36.82,2.35M235.58,85.95c0-.53-.12-.94-.36-1.24-.24-.3-.59-.45-1.04-.45s-.87.18-1.24.53c-.36.35-.65.83-.85,1.44-.2.61-.3,1.25-.3,1.94,0,.55.12.97.37,1.26.24.29.61.44,1.09.44.44,0,.85-.17,1.2-.51.36-.34.63-.81.83-1.41.2-.61.3-1.27.3-2M243.85,88.64c0,.86-.29,1.52-.88,1.98-.58.46-1.39.69-2.43.69-.94,0-1.74-.17-2.39-.5v-1.51c.76.45,1.53.67,2.32.67.48,0,.87-.1,1.16-.3.3-.2.45-.47.45-.81,0-.25-.09-.47-.26-.65-.17-.18-.52-.42-1.05-.72-.62-.33-1.05-.67-1.31-1.01-.26-.34-.38-.75-.38-1.22,0-.77.26-1.37.79-1.8.53-.43,1.24-.65,2.14-.65.97,0,1.83.21,2.57.62l-.56,1.31c-.69-.38-1.35-.56-1.97-.56-.36,0-.65.08-.88.24-.22.16-.34.39-.34.68,0,.22.08.42.24.59.16.17.5.4,1,.67.52.29.89.54,1.1.75.22.21.38.43.5.68s.17.53.17.85M248.68,91.31c-.97,0-1.73-.27-2.28-.82-.55-.55-.82-1.32-.82-2.3s.19-1.89.58-2.73c.38-.84.9-1.5,1.56-1.96.66-.46,1.39-.69,2.2-.69s1.42.18,1.86.54c.44.36.66.87.66,1.53,0,.9-.41,1.6-1.24,2.11-.82.51-2,.76-3.52.76h-.32l-.02.23v.22c0,.55.14.98.42,1.29.28.31.7.47,1.25.47.36,0,.71-.05,1.06-.14.35-.09.77-.26,1.25-.48v1.39c-.48.22-.91.37-1.31.46-.4.09-.84.14-1.33.14M249.81,84.14c-.47,0-.92.21-1.34.64-.42.43-.72.99-.9,1.68h.22c.93,0,1.66-.13,2.18-.4.52-.26.79-.64.79-1.12,0-.25-.08-.45-.24-.59-.16-.14-.39-.21-.71-.21M253.11,90.46c0-.41.12-.74.35-.98.23-.25.56-.37.97-.37.28,0,.5.08.66.23.16.16.25.38.25.69,0,.39-.12.71-.35.96-.23.25-.54.38-.92.38-.33,0-.57-.09-.72-.26-.16-.17-.23-.39-.23-.65"/>
      <path class="cls-1" d="M40.07.25s15.81,3.57,24.42,16.71c7.25,11.06,8.85,18.68,7.21,31.24,0,0,12.23-22.55,1.45-36.88C62.62-.79,40.07.25,40.07.25"/>
      <path class="cls-1" d="M68.57,23.67l8.69,7.14s1.67-10.83-2.45-17.35c-5.15-8.15-14.85-10.36-15.52-10.59l2.57,10.48,6.71,10.31Z"/>
      <path class="cls-1" d="M62.49,24.23c3.19,1.35,6.88-.14,8.23-3.33,1.35-3.19-.14-6.88-3.33-8.23-3.19-1.35-6.88.14-8.23,3.33-1.35,3.19.14,6.88,3.33,8.23"/>
      <path class="cls-1" d="M66.73,49.93s-11.79,11.12-27.5,10.93c-13.22-.16-20.43-3.08-29.94-11.47,0,0,11.88,22.73,29.79,21.79,15.92-1.97,27.65-21.26,27.65-21.26"/>
      <path class="cls-1" d="M31.39,60.5l-10.78,3.23s8.05,7.43,15.76,7.65c9.64.27,16.89-6.54,17.45-6.96l-10.13-3.72-12.3-.19Z"/>
      <path class="cls-1" d="M34.31,55.14c-2.91,1.89-3.73,5.78-1.83,8.69,1.89,2.91,5.78,3.73,8.69,1.83,2.91-1.89,3.73-5.78,1.83-8.69-1.89-2.9-5.78-3.73-8.69-1.83"/>
      <polygon class="cls-1" points="263.87 61.95 264.71 61.95 264.71 67.79 267.51 67.79 267.51 68.5 263.87 68.5 263.87 61.95"/>
      <path class="cls-1" d="M269.42,62.45v1.35h1.22v.65h-1.22v2.54c0,.58.16.91.64.91.22,0,.39-.03.5-.06l.04.64c-.16.07-.43.12-.76.12-.4,0-.72-.12-.92-.36-.24-.25-.33-.67-.33-1.23v-2.57h-.73v-.65h.73v-1.13l.84-.22Z"/>
      <path class="cls-1" d="M275.61,61.6v5.69c0,.42.01.9.04,1.22h-.77l-.04-.82h-.02c-.26.53-.84.92-1.6.92-1.14,0-2.01-.96-2.01-2.39-.01-1.57.96-2.53,2.11-2.53.72,0,1.21.34,1.42.72h.02v-2.81h.85ZM274.75,65.71c0-.11-.01-.25-.04-.36-.13-.55-.59-.99-1.24-.99-.89,0-1.41.78-1.41,1.82,0,.95.47,1.74,1.39,1.74.57,0,1.1-.38,1.26-1.02.03-.12.04-.23.04-.37v-.82Z"/>
    </g>
  </g>
</svg>