<svg width="155" height="60" viewBox="0 0 155 60" fill="none" xmlns="http://www.w3.org/2000/svg">
<g clip-path="url(#clip0_285_32)">
<path d="M23.8059 29.9412V17.7355H28.1958V29.8338C28.1958 32.6933 29.2984 34.2945 31.9139 34.2945C34.5293 34.2945 35.5755 32.7189 35.5755 29.8338V17.7355H39.8834V29.9156C39.8834 34.7753 37.4064 37.8191 31.8575 37.8191C26.3086 37.8191 23.8059 34.7753 23.8059 29.9412Z" fill="#9C1D21"/>
<mask id="mask0_285_32" style="mask-type:luminance" maskUnits="userSpaceOnUse" x="12" y="11" width="20" height="25">
<path d="M13.7235 17.7969C10.0465 25.2298 15.0518 35.7575 15.0518 35.7575C15.0518 35.7575 13.5953 27.5164 18.1442 20.7946C21.97 15.1369 25.288 12.8553 31.6216 11.1263C31.6216 11.1263 30.801 11.0444 29.4984 11.0444C25.5701 11.0444 17.2416 11.7913 13.7235 17.7969Z" fill="white"/>
</mask>
<g mask="url(#mask0_285_32)">
<path d="M14.5277 2.32188L-0.00140381 30.631L27.1417 44.492L41.6709 16.1829L14.5277 2.32188Z" fill="url(#paint0_radial_285_32)"/>
</g>
<mask id="mask1_285_32" style="mask-type:luminance" maskUnits="userSpaceOnUse" x="12" y="11" width="11" height="16">
<path d="M14.4108 16.5794C11.5491 20.6616 12.4363 25.7209 12.462 26.0841L16.9544 22.7692L20.534 17.5156L22.2059 11.9499C22.2059 11.9499 16.7031 13.3157 14.4159 16.5743" fill="white"/>
</mask>
<g mask="url(#mask1_285_32)">
<path d="M14.3142 7.2953L5.34167 22.417L19.4422 30.7417L28.4147 15.62L14.3142 7.2953Z" fill="url(#paint1_radial_285_32)"/>
</g>
<path d="M22.0212 20.2984C22.0264 18.508 20.5802 17.0501 18.7852 17.0449C16.9903 17.0398 15.5287 18.4824 15.5236 20.2728C15.5184 22.0633 16.9646 23.5212 18.7596 23.5314C20.5545 23.5365 22.0161 22.094 22.0264 20.3035" fill="#646565"/>
<path d="M66.3099 34.0336V39.098H60.5866V34.0336H58.5558V46.4183H60.5866V40.8373H66.3099V46.4183H68.3459V34.0336H66.3099ZM85.3105 34.0336V46.4183H92.5979V44.679H87.3414V34.0285H85.3105V34.0336ZM96.7673 35.7269H98.5263C101.306 35.7269 102.696 37.2104 102.696 40.1723C102.696 43.1341 101.203 44.7148 98.2135 44.7148H96.7673V35.7269ZM94.7365 34.0336V46.4183H98.2084C100.347 46.4183 101.988 45.8761 103.126 44.7967C104.265 43.7173 104.834 42.152 104.834 40.1058C104.834 38.1823 104.286 36.6886 103.188 35.6246C102.091 34.5605 100.552 34.0336 98.5776 34.0336H94.7365ZM107.501 46.4183H109.532V34.0336H107.501V46.4183ZM121.291 34.0336V40.5252C121.291 40.9805 121.307 41.6199 121.342 42.4333C121.378 43.2518 121.399 43.7224 121.409 43.8503H121.358L115.27 34.0336H112.809V46.4183H114.655V39.9779C114.655 39.1082 114.614 38.1465 114.537 37.0978L114.496 36.5453H114.563L120.671 46.4132H123.158V34.0285H121.296L121.291 34.0336ZM127.543 35.5478C126.394 36.6732 125.82 38.2335 125.82 40.2285C125.82 42.2236 126.327 43.8145 127.348 44.9246C128.368 46.0346 129.82 46.5922 131.697 46.5922C132.497 46.5922 133.24 46.5411 133.928 46.4388C134.615 46.3365 135.333 46.1625 136.081 45.9221V39.7016H131.512V41.4409H134.086V44.633C133.338 44.7967 132.635 44.8785 131.979 44.8785C130.676 44.8785 129.676 44.4846 128.984 43.6968C128.291 42.9091 127.943 41.7581 127.943 40.2439C127.943 38.7297 128.327 37.6656 129.097 36.8369C129.866 36.0082 130.912 35.5939 132.24 35.5939C133.245 35.5939 134.256 35.8241 135.266 36.2896L135.979 34.6014C134.82 34.1052 133.589 33.8546 132.292 33.8546C130.276 33.8546 128.691 34.4173 127.543 35.5478ZM139.523 34.7447C138.784 35.3381 138.42 36.1515 138.42 37.1848C138.42 38.0084 138.651 38.7143 139.117 39.3026C139.584 39.8909 140.379 40.4127 141.512 40.868C142.61 41.3079 143.333 41.6916 143.687 42.0138C144.036 42.3361 144.215 42.73 144.215 43.1904C144.215 43.7071 144.025 44.1163 143.641 44.4181C143.256 44.7251 142.666 44.8734 141.861 44.8734C141.312 44.8734 140.717 44.7967 140.082 44.6432C139.446 44.4898 138.841 44.28 138.276 44.014V45.9272C139.169 46.362 140.323 46.582 141.723 46.582C143.123 46.582 144.225 46.27 145.025 45.6408C145.825 45.0115 146.22 44.1521 146.22 43.0472C146.22 42.4896 146.123 42.0036 145.923 41.5893C145.723 41.1749 145.415 40.8066 144.989 40.4792C144.564 40.1518 143.897 39.7988 142.984 39.4203C142.174 39.0878 141.615 38.8166 141.302 38.6171C140.989 38.4125 140.769 38.1977 140.63 37.9675C140.492 37.7373 140.425 37.461 140.425 37.1387C140.425 36.6681 140.594 36.2947 140.933 36.0082C141.271 35.7217 141.769 35.5785 142.425 35.5785C143.292 35.5785 144.277 35.8087 145.379 36.2742L146.025 34.6219C144.846 34.1001 143.666 33.8392 142.477 33.8392C141.287 33.8392 140.251 34.1359 139.512 34.7293M74.0896 43.6764C73.4691 42.8886 73.1614 41.7325 73.1614 40.2081C73.1614 38.6836 73.4691 37.5378 74.0896 36.75C74.7102 35.9673 75.6281 35.5734 76.8436 35.5734C78.059 35.5734 78.9565 35.9673 79.5667 36.75C80.177 37.5378 80.4796 38.6888 80.4796 40.2081C80.4796 41.7274 80.1719 42.9091 79.5565 43.6917C78.9411 44.4693 78.0334 44.8581 76.8282 44.8581C75.623 44.8581 74.6999 44.4642 74.0845 43.6764M72.5204 35.4813C71.5101 36.576 71.0024 38.1465 71.0024 40.1927C71.0024 42.2389 71.5049 43.8145 72.5101 44.9246C73.5153 46.0346 74.9563 46.5922 76.8282 46.5922C78.7 46.5922 80.1103 46.0346 81.1206 44.9143C82.1309 43.794 82.6386 42.2287 82.6386 40.2132C82.6386 38.1977 82.1361 36.6272 81.1258 35.512C80.1206 34.3968 78.6898 33.8444 76.8436 33.8444C74.9974 33.8444 73.5255 34.3917 72.5152 35.4864" fill="#9C1D21"/>
<path d="M69.1972 12.0266V24.3243C69.1972 27.4755 67.8176 29.0562 65.0534 29.0562C63.6329 29.0562 62.5764 28.6725 61.8944 27.9103C61.2072 27.1481 60.8635 25.9613 60.8635 24.3499V12.0266H57.925V24.5801C57.925 26.8207 58.5404 28.5804 59.7763 29.8593C61.0123 31.1382 62.7405 31.7776 64.9611 31.7776C66.4535 31.7776 67.7407 31.4861 68.8177 30.9029C69.8946 30.3197 70.7152 29.491 71.2793 28.4116C71.8485 27.3323 72.1306 26.0738 72.1306 24.6364V12.0317H69.2023L69.1972 12.0266ZM88.9517 12.0266V22.2321C88.9517 22.9534 88.9773 23.9509 89.0235 25.2349C89.0747 26.5189 89.1055 27.2606 89.1209 27.4653H89.0491L80.2642 12.0215H76.7102V31.5014H79.3667V21.3727C79.3667 20.0068 79.3103 18.4926 79.1975 16.8454L79.1359 15.9809H79.2334L88.0439 31.5065H91.6338V12.0266H88.9517ZM96.3673 31.5065H99.2956V12.0266H96.3673V31.5065ZM102.019 12.0266V14.7583H107.286V31.5065H110.214V14.7583H115.486V12.0266H102.019ZM118.23 12.0266V31.5065H128.363V28.8004H121.158V22.6822H127.912V20.0171H121.158V14.7123H128.363V12.0215H118.23V12.0266ZM135.169 14.6918H137.707C141.718 14.6918 143.723 17.0245 143.723 21.6847C143.723 26.345 141.564 28.826 137.251 28.826H135.169V14.6867V14.6918ZM132.24 12.0266V31.5065H137.251C140.338 31.5065 142.702 30.6573 144.348 28.9539C145.989 27.2555 146.81 24.795 146.81 21.5773C146.81 18.5489 146.02 16.2009 144.43 14.5281C142.846 12.8604 140.625 12.0215 137.774 12.0215H132.235L132.24 12.0266Z" fill="#646565"/>
<path d="M79.6693 58.1175L80.854 52.516H81.7617L80.7411 57.3348H82.813L82.6489 58.1175H79.6693ZM84.3874 58.1175H83.4797L84.3874 53.8818H85.29L84.3874 58.1175ZM84.572 52.8383C84.572 52.6643 84.6233 52.5262 84.7208 52.4188C84.8182 52.3114 84.9618 52.2551 85.1413 52.2551C85.2746 52.2551 85.3874 52.2909 85.4695 52.3574C85.5516 52.4239 85.5977 52.5262 85.5977 52.6643C85.5977 52.8434 85.5464 52.9866 85.4439 53.0941C85.3413 53.2015 85.208 53.2526 85.0387 53.2526C84.9003 53.2526 84.7926 53.2168 84.7002 53.1503C84.6131 53.0838 84.5669 52.9815 84.5669 52.8383M86.3516 58.1175L85.849 53.8818H86.7413L86.9516 56.1736C86.9875 56.5777 87.0029 56.9614 87.0029 57.3092H87.0285C87.1003 57.12 87.1875 56.9102 87.2952 56.6749C87.4029 56.4447 87.485 56.2759 87.5465 56.1685L88.7414 53.8767H89.7004L87.4029 58.1124H86.3465L86.3516 58.1175ZM91.2594 58.1942C90.7569 58.1942 90.362 58.051 90.0799 57.7696C89.7978 57.4883 89.6543 57.0893 89.6543 56.5828C89.6543 56.0764 89.7517 55.6058 89.9517 55.171C90.1517 54.7361 90.4184 54.3985 90.7569 54.1632C91.0953 53.9279 91.4748 53.8051 91.8954 53.8051C92.3159 53.8051 92.6287 53.8972 92.8595 54.0813C93.0903 54.2655 93.2031 54.5315 93.2031 54.8691C93.2031 55.3347 92.9877 55.6979 92.562 55.9587C92.1364 56.2196 91.5261 56.3526 90.7415 56.3526H90.5774L90.5671 56.4703V56.5828C90.5671 56.8642 90.6389 57.0893 90.7825 57.2479C90.9261 57.4064 91.1415 57.4883 91.4287 57.4883C91.6133 57.4883 91.7979 57.4627 91.9774 57.4167C92.1569 57.3655 92.3723 57.2837 92.6236 57.166V57.8822C92.3774 57.9947 92.1518 58.0766 91.9466 58.1226C91.7415 58.1687 91.5107 58.1942 91.2594 58.1942ZM91.8441 54.4906C91.5979 54.4906 91.3671 54.598 91.1517 54.818C90.9364 55.038 90.7774 55.3295 90.6851 55.6876H90.7979C91.28 55.6876 91.6543 55.6211 91.9261 55.483C92.1979 55.3449 92.3313 55.1505 92.3313 54.8998C92.3313 54.7719 92.2902 54.6696 92.2082 54.5929C92.1261 54.5213 92.003 54.4855 91.8441 54.4855M100.521 58.1175H99.5315L99.3879 54.8896L99.3674 54.1785L99.3828 53.7744H99.3623C99.2443 54.1427 99.0905 54.5162 98.911 54.8896L97.434 58.1175H96.4494L96.2442 52.516H97.1212L97.193 55.7746C97.193 56.1224 97.1776 56.5624 97.1417 57.0995H97.1622C97.3725 56.5368 97.5571 56.0815 97.7058 55.7388L99.193 52.516H100.055L100.173 55.7285L100.183 56.3782L100.173 57.0995H100.203C100.275 56.8744 100.367 56.6238 100.475 56.3424C100.583 56.0662 100.66 55.8667 100.711 55.7592L102.085 52.516H103.029L100.511 58.1175H100.521ZM103.419 58.1175H102.511L103.419 53.8818H104.321L103.419 58.1175ZM103.598 52.8383C103.598 52.6643 103.65 52.5262 103.747 52.4188C103.85 52.3114 103.988 52.2551 104.168 52.2551C104.306 52.2551 104.414 52.2909 104.496 52.3574C104.578 52.4239 104.624 52.5262 104.624 52.6643C104.624 52.8434 104.573 52.9866 104.47 53.0941C104.368 53.2015 104.234 53.2526 104.065 53.2526C103.932 53.2526 103.819 53.2168 103.727 53.1503C103.639 53.0838 103.593 52.9815 103.593 52.8383M106.239 57.4678C106.414 57.4678 106.609 57.4269 106.819 57.3502V58.0305C106.732 58.0715 106.609 58.1124 106.455 58.1431C106.301 58.1789 106.147 58.1942 105.993 58.1942C105.291 58.1942 104.942 57.8771 104.942 57.2479C104.942 57.1046 104.962 56.9358 105.003 56.7465L105.47 54.5622H104.85L104.932 54.1427L105.66 53.8307L106.157 52.9406H106.716L106.516 53.8818H107.588L107.439 54.5622H106.378L105.911 56.7517C105.875 56.8949 105.86 57.0074 105.86 57.1046C105.86 57.212 105.891 57.3041 105.957 57.3655C106.024 57.4269 106.121 57.4627 106.25 57.4627M110.075 58.1175L110.619 55.5444C110.665 55.3142 110.686 55.1505 110.686 55.0584C110.686 54.7157 110.522 54.5417 110.188 54.5417C109.901 54.5417 109.634 54.7003 109.383 55.0226C109.132 55.3398 108.952 55.7797 108.834 56.3322L108.46 58.1226H107.552L108.819 52.163H109.722L109.501 53.1657C109.434 53.4879 109.337 53.8614 109.219 54.286L109.147 54.5724H109.178C109.393 54.3013 109.609 54.1069 109.824 53.9842C110.04 53.8614 110.265 53.8051 110.506 53.8051C110.855 53.8051 111.122 53.9023 111.306 54.1018C111.491 54.3013 111.583 54.5827 111.583 54.951C111.583 55.1454 111.552 55.3653 111.496 55.616L110.963 58.1175H110.065H110.075ZM118.573 54.0507C118.573 54.685 118.358 55.171 117.922 55.5086C117.486 55.8462 116.881 56.0201 116.106 56.0201H115.686L115.245 58.1175H114.332L115.517 52.516H116.799C117.383 52.516 117.83 52.6439 118.122 52.8997C118.419 53.1554 118.568 53.5391 118.568 54.0507M115.85 55.2528H116.209C116.665 55.2528 117.019 55.1505 117.265 54.9459C117.517 54.7413 117.64 54.4548 117.64 54.0813C117.64 53.8051 117.563 53.6005 117.414 53.4726C117.265 53.3447 117.035 53.2782 116.727 53.2782H116.271L115.85 55.2477V55.2528ZM120.517 53.8818L120.019 56.2196C119.942 56.5777 119.901 56.8284 119.901 56.9614C119.901 57.3041 120.066 57.4729 120.389 57.4729C120.573 57.4729 120.758 57.4013 120.937 57.253C121.117 57.1097 121.281 56.9 121.419 56.6289C121.558 56.3578 121.671 56.0457 121.748 55.6825L122.127 53.887H123.019L122.127 58.1226H121.414L121.496 57.3399H121.466C121.255 57.6366 121.035 57.8515 120.809 57.9947C120.578 58.1328 120.337 58.2045 120.071 58.2045C119.727 58.2045 119.46 58.1073 119.276 57.9129C119.091 57.7185 118.994 57.4422 118.994 57.079C118.994 56.9205 119.009 56.7568 119.04 56.6033C119.071 56.4447 119.101 56.2861 119.132 56.1276L119.604 53.8921H120.512L120.517 53.8818ZM126.271 53.8051C126.43 53.8051 126.568 53.8205 126.686 53.8511L126.491 54.6901C126.353 54.6543 126.225 54.6338 126.102 54.6338C125.779 54.6338 125.491 54.7771 125.24 55.0686C124.989 55.3602 124.809 55.7337 124.712 56.2043L124.307 58.1175H123.399L124.307 53.8818H125.014L124.932 54.6645H124.968C125.179 54.3576 125.394 54.1376 125.604 54.0046C125.814 53.8716 126.04 53.8051 126.281 53.8051M128.64 58.1942C128.179 58.1942 127.83 57.9691 127.604 57.519H127.563C127.548 57.7696 127.512 58.005 127.466 58.23L127.097 60.0051H126.204L127.502 53.8818H128.209L128.127 54.6031H128.163C128.563 54.0711 129.004 53.8051 129.486 53.8051C129.85 53.8051 130.138 53.9381 130.348 54.199C130.558 54.465 130.661 54.8282 130.661 55.2937C130.661 55.8155 130.574 56.3015 130.394 56.7568C130.215 57.212 129.968 57.565 129.661 57.8157C129.353 58.0663 129.015 58.1942 128.64 58.1942ZM129.748 55.3091C129.748 54.7975 129.548 54.5366 129.153 54.5366C128.948 54.5366 128.738 54.6389 128.532 54.8436C128.327 55.0482 128.163 55.3142 128.03 55.6518C127.902 55.9843 127.835 56.3322 127.835 56.6903C127.835 56.9358 127.897 57.1251 128.014 57.2632C128.132 57.4013 128.302 57.4678 128.517 57.4678C128.732 57.4678 128.938 57.3655 129.127 57.166C129.317 56.9665 129.466 56.6954 129.579 56.3629C129.686 56.0252 129.743 55.6774 129.743 55.3091M135.174 55.4677C135.174 55.9843 135.081 56.455 134.892 56.8744C134.707 57.299 134.451 57.6213 134.122 57.8464C133.794 58.0715 133.42 58.184 132.994 58.184C132.502 58.184 132.112 58.0356 131.825 57.7441C131.538 57.4525 131.389 57.0535 131.389 56.5521C131.389 56.0508 131.481 55.5802 131.666 55.1556C131.851 54.731 132.107 54.4036 132.435 54.1632C132.763 53.9279 133.148 53.8102 133.579 53.8102C134.076 53.8102 134.466 53.9586 134.748 54.2553C135.03 54.552 135.169 54.9561 135.169 55.4677M134.266 55.4267C134.266 55.1556 134.204 54.9408 134.076 54.7822C133.953 54.6287 133.774 54.552 133.538 54.552C133.302 54.552 133.086 54.6441 132.897 54.8282C132.707 55.0124 132.563 55.2579 132.461 55.57C132.358 55.882 132.307 56.2145 132.307 56.5726C132.307 56.854 132.368 57.0739 132.497 57.2223C132.625 57.3706 132.81 57.4474 133.061 57.4474C133.292 57.4474 133.497 57.3604 133.681 57.1865C133.866 57.0125 134.01 56.767 134.112 56.455C134.215 56.1429 134.266 55.8002 134.266 55.4216M138.543 56.813C138.543 57.253 138.394 57.5957 138.092 57.8361C137.789 58.0766 137.369 58.1942 136.83 58.1942C136.343 58.1942 135.933 58.1073 135.594 57.9385V57.1609C135.984 57.3911 136.384 57.5036 136.794 57.5036C137.04 57.5036 137.246 57.4525 137.399 57.3502C137.553 57.2479 137.63 57.1097 137.63 56.9307C137.63 56.8028 137.584 56.6903 137.497 56.5931C137.41 56.501 137.225 56.3782 136.953 56.2196C136.635 56.0457 136.405 55.8718 136.276 55.6979C136.143 55.5188 136.076 55.3091 136.076 55.0686C136.076 54.6747 136.215 54.3627 136.487 54.1376C136.758 53.9125 137.133 53.8 137.594 53.8C138.097 53.8 138.538 53.9074 138.923 54.1223L138.63 54.7975C138.271 54.6031 137.933 54.5059 137.61 54.5059C137.425 54.5059 137.271 54.5469 137.153 54.6338C137.035 54.7208 136.979 54.8384 136.979 54.9868C136.979 55.0993 137.02 55.2016 137.107 55.2937C137.189 55.3807 137.364 55.4983 137.625 55.6365C137.892 55.7848 138.087 55.9178 138.199 56.0252C138.312 56.1327 138.399 56.2503 138.456 56.3731C138.512 56.501 138.543 56.6442 138.543 56.813ZM141.046 58.1942C140.543 58.1942 140.148 58.051 139.866 57.7696C139.584 57.4883 139.441 57.0893 139.441 56.5828C139.441 56.0764 139.538 55.6058 139.738 55.171C139.938 54.7361 140.205 54.3985 140.543 54.1632C140.882 53.9279 141.261 53.8051 141.682 53.8051C142.102 53.8051 142.415 53.8972 142.646 54.0813C142.877 54.2655 142.989 54.5315 142.989 54.8691C142.989 55.3347 142.774 55.6979 142.348 55.9587C141.923 56.2196 141.312 56.3526 140.528 56.3526H140.364V56.4703L140.359 56.5828C140.359 56.8642 140.43 57.0893 140.574 57.2479C140.717 57.4064 140.933 57.4883 141.22 57.4883C141.405 57.4883 141.589 57.4627 141.769 57.4167C141.948 57.3655 142.164 57.2837 142.415 57.166V57.8822C142.169 57.9947 141.943 58.0766 141.738 58.1226C141.533 58.1687 141.302 58.1942 141.051 58.1942M141.63 54.4906C141.384 54.4906 141.153 54.598 140.938 54.818C140.723 55.038 140.569 55.3295 140.471 55.6876H140.584C141.066 55.6876 141.441 55.6211 141.712 55.483C141.984 55.3449 142.118 55.1505 142.118 54.8998C142.118 54.7719 142.077 54.6696 141.994 54.5929C141.912 54.5213 141.789 54.4855 141.63 54.4855M143.333 57.7543C143.333 57.5446 143.394 57.3757 143.512 57.2479C143.63 57.12 143.8 57.0586 144.015 57.0586C144.159 57.0586 144.271 57.0995 144.359 57.1814C144.446 57.2632 144.487 57.3809 144.487 57.5343C144.487 57.7338 144.425 57.8975 144.302 58.0305C144.179 58.1635 144.02 58.23 143.825 58.23C143.656 58.23 143.533 58.184 143.451 58.0919C143.369 57.9998 143.328 57.8873 143.328 57.7543" fill="#646565"/>
<mask id="mask2_285_32" style="mask-type:luminance" maskUnits="userSpaceOnUse" x="33" y="11" width="20" height="25">
<path d="M33.0575 11.1723C33.0575 11.1723 41.2373 13.0139 45.6989 19.8022C49.4529 25.5111 50.2786 29.4449 49.4273 35.9365C49.4273 35.9365 55.7557 24.2936 50.176 16.8914C45.5246 11.5508 36.3345 11.162 33.7447 11.162C33.3037 11.162 33.0524 11.1723 33.0524 11.1723" fill="white"/>
</mask>
<g mask="url(#mask2_285_32)">
<path d="M46.3155 -0.00366971L20.8163 21.4604L42.4997 47.0913L67.9989 25.6272L46.3155 -0.00366971Z" fill="url(#paint2_radial_285_32)"/>
</g>
<mask id="mask3_285_32" style="mask-type:luminance" maskUnits="userSpaceOnUse" x="43" y="12" width="10" height="15">
<path d="M44.3348 17.9401L47.8067 23.2654L52.3043 26.9537C52.3043 26.9537 53.171 21.3624 51.0376 17.9964C48.3708 13.7863 43.3501 12.6456 43.0014 12.5279L44.3348 17.9401Z" fill="white"/>
</mask>
<g mask="url(#mask3_285_32)">
<path d="M49.548 7.669L36.0771 17.6664L46.6262 31.8094L60.097 21.812L49.548 7.669Z" fill="url(#paint3_radial_285_32)"/>
</g>
<mask id="mask4_285_32" style="mask-type:luminance" maskUnits="userSpaceOnUse" x="17" y="36" width="30" height="12">
<path d="M32.5396 47.8046C40.7809 46.7866 46.8529 36.8267 46.8529 36.8267C46.8529 36.8267 40.7501 42.5714 32.6165 42.4742C25.7752 42.3924 22.0366 40.8833 17.1134 36.5555C17.1134 36.5555 23.2623 48.2957 32.5344 47.8097" fill="white"/>
</mask>
<g mask="url(#mask4_285_32)">
<path d="M46.5065 33.3593L15.8511 36.692L17.4674 51.4855L48.1228 48.1528L46.5065 33.3593Z" fill="url(#paint4_radial_285_32)"/>
</g>
<mask id="mask5_285_32" style="mask-type:luminance" maskUnits="userSpaceOnUse" x="22" y="42" width="19" height="6">
<path d="M22.9802 43.9475C22.9802 43.9475 27.1445 47.7841 31.1395 47.9018C36.1294 48.045 39.8833 44.5255 40.1705 44.3055L34.9242 42.3872L28.5599 42.2849L22.9802 43.9526V43.9475Z" fill="white"/>
</mask>
<g mask="url(#mask5_285_32)">
<path d="M40.1361 41.4731L22.7141 42.2957L23.0251 48.8516L40.4472 48.029L40.1361 41.4731Z" fill="url(#paint5_radial_285_32)"/>
</g>
<path d="M30.0728 39.5174C28.5702 40.4945 28.1445 42.5049 29.124 44.0037C30.1036 45.5026 32.119 45.9272 33.6216 44.9501C35.1242 43.9731 35.5499 41.9626 34.5704 40.4638C33.5908 38.9649 31.5754 38.5404 30.0728 39.5174Z" fill="#646565"/>
<path d="M44.4757 17.5256C42.9731 18.5027 42.5474 20.5131 43.5269 22.0119C44.5064 23.5108 46.5219 23.9354 48.0245 22.9583C49.5271 21.9812 49.9528 19.9708 48.9733 18.472C47.9937 16.9731 45.9783 16.5485 44.4757 17.5256Z" fill="#646565"/>
<path d="M148.902 43.0369H149.343V46.05H150.79V46.4183H148.902V43.0369Z" fill="#9C1D21"/>
<path d="M151.779 43.2927V43.9884H152.415V44.326H151.779V45.6356C151.779 45.9374 151.867 46.1062 152.113 46.1062C152.231 46.1062 152.313 46.0909 152.369 46.0756L152.39 46.4081C152.302 46.4439 152.169 46.4695 151.995 46.4695C151.79 46.4695 151.62 46.403 151.518 46.2853C151.39 46.1523 151.343 45.9374 151.343 45.651V44.326H150.964V43.9884H151.343V43.4053L151.779 43.2876V43.2927Z" fill="#9C1D21"/>
<path d="M154.985 42.8528V45.7891C154.985 46.0039 154.985 46.2495 155.005 46.4183H154.605L154.585 45.9988H154.574C154.441 46.27 154.144 46.4746 153.744 46.4746C153.154 46.4746 152.702 45.9784 152.702 45.2417C152.697 44.4335 153.2 43.9373 153.795 43.9373C154.164 43.9373 154.42 44.1112 154.528 44.3056H154.538V42.8528H154.979H154.985ZM154.538 44.9757C154.538 44.9195 154.533 44.8427 154.518 44.7916C154.451 44.5102 154.21 44.28 153.877 44.28C153.42 44.28 153.149 44.6841 153.149 45.2213C153.149 45.7124 153.39 46.1216 153.867 46.1216C154.164 46.1216 154.436 45.9272 154.518 45.5947C154.533 45.5333 154.538 45.4719 154.538 45.4054V44.986V44.9757Z" fill="#9C1D21"/>
</g>
<defs>
<radialGradient id="paint0_radial_285_32" cx="0" cy="0" r="1" gradientTransform="matrix(15.2651 7.79535 7.81493 -15.2269 17.7276 21.2941)" gradientUnits="userSpaceOnUse">
<stop stop-color="#A0292F"/>
<stop offset="0.32" stop-color="#A0292F"/>
<stop offset="0.77" stop-color="#7D2B32"/>
<stop offset="1" stop-color="#3A1413"/>
</radialGradient>
<radialGradient id="paint1_radial_285_32" cx="0" cy="0" r="1" gradientTransform="matrix(11.8585 7.00112 7.0187 -11.8288 17.4883 22.3856)" gradientUnits="userSpaceOnUse">
<stop stop-color="#A0292F"/>
<stop offset="0.04" stop-color="#A0292F"/>
<stop offset="0.47" stop-color="#7D2B32"/>
<stop offset="1" stop-color="#3A1413"/>
</radialGradient>
<radialGradient id="paint2_radial_285_32" cx="0" cy="0" r="1" gradientTransform="matrix(-6.55314 5.51614 5.53 6.53672 45.3687 19.1522)" gradientUnits="userSpaceOnUse">
<stop stop-color="#A0292F"/>
<stop offset="0.32" stop-color="#A0292F"/>
<stop offset="0.77" stop-color="#7D2B32"/>
<stop offset="1" stop-color="#3A1413"/>
</radialGradient>
<radialGradient id="paint3_radial_285_32" cx="0" cy="0" r="1" gradientTransform="matrix(-11.0556 8.20499 8.2256 11.0279 44.4281 18.6805)" gradientUnits="userSpaceOnUse">
<stop stop-color="#A0292F"/>
<stop offset="0.04" stop-color="#A0292F"/>
<stop offset="0.47" stop-color="#7D2B32"/>
<stop offset="1" stop-color="#3A1413"/>
</radialGradient>
<radialGradient id="paint4_radial_285_32" cx="0" cy="0" r="1" gradientTransform="matrix(-0.929032 -8.50281 -8.52417 0.926704 33.3138 42.6146)" gradientUnits="userSpaceOnUse">
<stop stop-color="#A0292F"/>
<stop offset="0.32" stop-color="#A0292F"/>
<stop offset="0.77" stop-color="#7D2B32"/>
<stop offset="1" stop-color="#3A1413"/>
</radialGradient>
<radialGradient id="paint5_radial_285_32" cx="0" cy="0" r="1" gradientTransform="matrix(-0.651526 -13.73 -13.7645 0.649894 34.2199 42.1403)" gradientUnits="userSpaceOnUse">
<stop stop-color="#A0292F"/>
<stop offset="0.04" stop-color="#A0292F"/>
<stop offset="0.47" stop-color="#7D2B32"/>
<stop offset="1" stop-color="#3A1413"/>
</radialGradient>
<clipPath id="clip0_285_32">
<rect width="155" height="60" fill="white"/>
</clipPath>
</defs>
</svg>
